#!OML:ASF E:/inclinewalkrobotboard/Project1/Captureday1/Session1/subject1.ASF
:FULLY-SPECIFIED
:DEGREES
226
root 0 0 0 -1.7036082703609208 -1.95852217641601 -3.7800570926508597
lowerback 20.4732677172824 2.3272305115328766 -0.8867632213729053
upperback 3.83962766735918 3.120030439519271 0.4851572229794678
thorax -7.277308550101142 1.5316557325567968 0.487671974115018
lowerneck -5.364930957722259 -5.525590309204134 -0.5181319766939626
upperneck 5.337988783711637 -7.753710248205133 4.313829461921998
head 3.028892558550167 -3.589695480398026 0.9123295701839739
rclavicle 4.739024147078749E-15 6.228104545336484E-16
rhumerus 10.614027729337534 -14.812257298315021 -52.31625181010395
rradius 109.5605928775265
rwrist 4.780539149402951
rhand -19.68488469885708 -24.332963271663566
rfingers 7.125019999999956
rthumb 6.6648156248105455 -54.25110448957038
lclavicle 7.021515176200754E-16 9.349361915597134E-16
lhumerus -46.92150201181406 -6.174420766030139 79.91568186346244
lradius 61.71030666152272
lwrist 10.894664104316814
lhand -14.746615988855321 -19.417242912576402
lfingers 7.125019999999856
lthumb 11.326721556641132 10.427134108686184
rfemur -21.253865878800596 5.592881233276624 31.99721924913188
rtibia 51.048103368235736
rfoot -8.908660681143015 -7.974057293428989
rtoes 7.965841226752233
lfemur -14.029270629631068 -0.6634244924209418 -21.051559430067854
ltibia 42.23809211793861
lfoot 4.585179216767397 -10.9927926519921
ltoes 10.499287504513227
227
root 0 0 0 -1.7349230147880859 -1.7675363650370655 -3.788595365537284
lowerback 20.223690549436988 2.1888067766984682 -0.9812580014605812
upperback 4.302438968510106 2.934589218657722 0.6166050687026678
thorax -6.6236053785547995 1.4427231227263024 0.7228612232816226
lowerneck -4.836662379481981 -5.433306928048324 -0.42962015260724545
upperneck 7.448738557639432 -7.653976066988163 4.200765658500419
head 3.6198729366655082 -3.519662380279703 0.8560660268783377
rclavicle 4.643201901115591E-15 5.25558983155061E-16
rhumerus -2.1115597491478617 -17.888793293300576 -62.88746666651675
rradius 92.43442006794639
rwrist 16.051530861738105
rhand -19.489522247547065 -22.070427387237842
rfingers 7.125019999999952
rthumb 6.8561790410673895 -52.02543706215938
lclavicle 1.2606276969990137E-15 7.585869293122907E-16
lhumerus -46.672573347632884 -6.30907346336828 80.22413179186182
lradius 61.66082681473705
lwrist 10.817139160188395
lhand -14.67550906738276 -19.562830633646175
lfingers 7.125019999999859
lthumb 11.391891891044192 10.268425389379242
rfemur -23.596525756978835 4.526698843431023 31.165779632783952
rtibia 56.505410679290684
rfoot -6.610412494718987 -6.903417341906312
rtoes 9.621680754628876
lfemur -11.914346954951538 -0.7019789274186268 -20.765428344972015
ltibia 44.43646319111299
lfoot 5.970939384125614 -12.346598198591774
ltoes 7.953644767874081
228
root 0 0 0 -1.798265799374709 -1.6648936477837037 -3.7954317822158425
lowerback 19.988012241577984 2.0397221820358613 -1.0367126968417866
upperback 4.801716582559045 2.7354129452150495 0.7385038792387775
thorax -5.941113767345144 1.345695443044499 0.9294177604676439
lowerneck -4.191752117232158 -5.26452959965807 -0.27249808641164197
upperneck 9.400252645396709 -7.449838791264867 4.05933021933855
head 4.133709180362494 -3.401039733506007 0.7929001854802936
rclavicle 3.1716081742987936E-15 1.1888339023525528E-16
rhumerus -7.762916306566031 -19.36876906020051 -67.31061018356152
rradius 85.0603272480089
rwrist 20.387564436051925
rhand -19.33676366530833 -21.399055137859815
rfingers 7.125019999999951
rthumb 7.0040595348221295 -51.36752796922872
lclavicle 1.0275443572762076E-15 3.6170958665626996E-16
lhumerus -46.360284228742444 -6.477118873889109 80.62187270505788
lradius 61.63715467103653
lwrist 10.699524819241466
lhand -14.574502138182625 -19.904903053275028
lfingers 7.125019999999864
lthumb 11.491587075143183 9.926636474979455
rfemur -24.70007313365632 3.614814541180457 30.34428327355379
rtibia 60.99906645586554
rfoot -4.894602351709741 -5.940013578879266
rtoes 11.069157788633255
lfemur -10.319640562753175 -0.5495950817523019 -20.062844414375498
ltibia 47.72840756159445
lfoot 6.927321307778609 -13.400304063143214
ltoes 4.4392845019441225
229
root 0 0 0 -1.9178331666972026 -1.7130648253073137 -3.767666707340625
lowerback 19.76497091384863 1.9038164352881666 -1.030391638055761
upperback 5.404945072942136 2.554106007611221 0.870360799077196
thorax -5.156719476957857 1.2594492877263557 1.112431145115268
lowerneck -3.353897482348911 -5.037183581411558 -0.11812150346841635
upperneck 11.348638076628125 -7.1558745033717255 3.9545169309768755
head 4.5972850306971536 -3.243343213798173 0.7511340635423951
rclavicle 2.0821727223699223E-15 -7.864607400618305E-17
rhumerus -12.43547591237352 -20.226865515500364 -71.20775145988361
rradius 78.86549649212795
rwrist 24.311224294921878
rhand -19.178406485468706 -20.59272594331921
rfingers 7.125019999999949
rthumb 7.158139555242899 -50.561471566785556
lclavicle 9.458775390986684E-16 2.478789754476493E-16
lhumerus -45.66224000928127 -6.803030047830071 81.41866712480589
lradius 61.58965811660631
lwrist 10.4292091049824
lhand -14.378959797652481 -20.73406953975077
lfingers 7.125019999999878
lthumb 11.683341174640056 9.090756822870627
rfemur -24.817314088088157 3.275236489044995 30.020695808186083
rtibia 62.569295193992964
rfoot -4.12940808231401 -5.352380244893378
rtoes 12.147190392697532
lfemur -9.555833305061261 -0.1709156445051896 -19.04288751076964
ltibia 51.84819471002467
lfoot 7.211837877065403 -13.957872125123558
ltoes 0.4551863090384174
230
root 0 0 0 -1.8965307813985914 -1.816431591603191 -3.6642995846731026
lowerback 19.734777785059393 1.7796645212612436 -0.9703758648630376
upperback 6.075313576465191 2.3864488185920893 1.0257595839797273
thorax -4.409089527403525 1.185599737215111 1.278802039417036
lowerneck -2.0948184457925016 -4.762000051157355 0.0043283579312135
upperneck 12.67879853523769 -6.754232276067421 3.9480140746113377
head 4.762951122838566 -3.0564175915744336 0.7685633507661505
rclavicle 1.1254695798934058E-15 -2.1719534364427495E-16
rhumerus -15.255729374660636 -20.071978856951 -73.84074206520904
rradius 75.06120811398836
rwrist 26.928784153133
rhand -18.962296248529704 -19.82497615625413
rfingers 7.125019999999945
rthumb 7.367376735993587 -49.77385886964322
lclavicle 6.450058877454658E-16 4.157565575021824E-16
lhumerus -43.96503516198481 -7.587173884356037 83.24645373654688
lradius 61.55229701674492
lwrist 9.828131072230113
lhand -13.9501278006144 -22.789111193334136
lfingers 7.125019999999909
lthumb 12.10190532723426 7.016592425954332
rfemur -24.45882012788721 3.5284264152657125 30.277773698361706
rtibia 60.44064581225454
rfoot -4.86034613183263 -5.18887055190943
rtoes 12.92251933632836
lfemur -10.361124631044067 0.796267542419121 -17.25180932157845
ltibia 58.3556169974641
lfoot 6.074780266719639 -13.614525218372176
ltoes -4.957071489037737
231
root 0 0 0 -1.7582412211208274 -1.8156814070190752 -3.5891464257588837
lowerback 19.830246380669283 1.7372133358042134 -0.9071206206070446
upperback 6.402701802588198 2.3269349275098317 1.0762994311162797
thorax -4.108972701171349 1.1617636643971563 1.3034419678232592
lowerneck -1.4118034818584526 -4.643697100248575 0.00968733693829546
upperneck 12.720845327929664 -6.561417675210791 4.025964626856615
head 4.616314240388695 -2.9786423332461003 0.8208295218699471
rclavicle 7.51408691262293E-16 -2.224402922741454E-16
rhumerus -15.564619689298814 -19.38515841335907 -74.30011281319352
rradius 74.80652364950964
rwrist 27.32358901300382
rhand -18.83668918285645 -19.587635796813334
rfingers 7.125019999999943
rthumb 7.488599229838794 -49.517219414561836
lclavicle 3.897051068562076E-16 6.168300660496233E-16
lhumerus -43.15888044823222 -7.992012648658156 84.19438081763965
lradius 61.52619612987074
lwrist 9.527195291424748
lhand -13.708786052760221 -23.757142584982443
lfingers 7.125019999999924
lthumb 12.336718107681332 6.021504473933451
rfemur -23.949083279843418 4.0995226500612105 30.699136573143402
rtibia 56.219975996850856
rfoot -6.510970871642718 -5.491461168215493
rtoes 13.000844827901638
lfemur -12.446011879875265 1.6118747293903701 -16.1255606542561
ltibia 61.82409872308524
lfoot 4.430803971942858 -12.61633399204915
ltoes -6.977022157587207
232
root 0 0 0 -1.625386287263742 -1.7915779229818054 -3.5417733051511275
lowerback 19.875348272422528 1.7334296106778355 -0.8265193136530882
upperback 6.622100922117215 2.319398606636408 1.0726302223250022
thorax -3.9012893053196063 1.1608851218362872 1.2529175639547458
lowerneck -1.0449054419679538 -4.59085871766378 -0.045965407506852796
upperneck 12.442855587070426 -6.467995250732056 4.145329004824344
head 4.419851491713551 -2.94551156065039 0.8867563120168064
rclavicle 3.390201882685491E-16 -1.3298989052362697E-16
rhumerus -15.256770919959994 -18.38319525030857 -74.24556037588712
rradius 75.64873075957316
rwrist 27.195088132151646
rhand -18.766201603019546 -19.46410768066714
rfingers 7.1250199999999415
rthumb 7.556540442310676 -49.37615267050432
lclavicle 1.3253135010248298E-17 8.332329070344011E-16
lhumerus -42.83472070960643 -8.194083815473824 84.66437506331613
lradius 61.51139838610452
lwrist 9.392483585207932
lhand -13.568694192529959 -24.1391939213276
lfingers 7.125019999999931
lthumb 12.471429781870835 5.608640882802774
rfemur -22.68727600795607 5.020680476236437 31.259124998749567
rtibia 49.68430638075173
rfoot -9.104835254906117 -6.128303749889802
rtoes 12.727569926060667
lfemur -15.285120052899934 2.385705650526449 -15.12432155477686
ltibia 64.02568060791735
lfoot 2.6510545460548656 -11.330571630839213
ltoes -7.587772757954788
